HIERARCHY
ROOT hip
{
  OFFSET 0 0 0
  CHANNELS 6 Xposition Yposition Zposition Zrotation Yrotation Xrotation
  JOINT abdomen
  {
    OFFSET 0 20.6881 -0.73152
    CHANNELS 3 Zrotation Xrotation Yrotation
    JOINT chest
    {
      OFFSET 0 11.7043 -0.48768
      CHANNELS 3 Zrotation Xrotation Yrotation
      JOINT neck
      {
        OFFSET 0 22.1894 -2.19456
        CHANNELS 3 Zrotation Xrotation Yrotation
        JOINT head
        {
          OFFSET -0.24384 7.07133 1.2192
          CHANNELS 3 Zrotation Xrotation Yrotation
          JOINT leftEye
          {
            OFFSET 4.14528 8.04674 8.04672
            CHANNELS 3 Zrotation Xrotation Yrotation
            End Site
            {
              OFFSET 1 0 0
            }
          }
          JOINT rightEye
          {
            OFFSET -3.6576 8.04674 8.04672
            CHANNELS 3 Zrotation Xrotation Yrotation
            End Site
            {
              OFFSET 1 0 0
            }
          }
        }
      }
      JOINT rCollar
      {
        OFFSET -2.68224 19.2634 -4.8768
        CHANNELS 3 Zrotation Xrotation Yrotation
        JOINT rShldr
        {
          OFFSET -8.77824 -1.95073 1.46304
          CHANNELS 3 Zrotation Xrotation Yrotation
          JOINT rForeArm
          {
            OFFSET -28.1742 -1.7115 0.48768
            CHANNELS 3 Zrotation Xrotation Yrotation
            JOINT rHand
            {
              OFFSET -22.5879 0.773209 7.07136
              CHANNELS 3 Zrotation Xrotation Yrotation
              JOINT rThumb1
              {
                OFFSET -1.2192 -0.487915 3.41376
                CHANNELS 3 Zrotation Xrotation Yrotation
                JOINT rThumb2
                {
                  OFFSET -3.37035 -0.52449 3.41376
                  CHANNELS 3 Zrotation Xrotation Yrotation
                  End Site
                  {
                    OFFSET -1.78271 -1.18214 1.43049
                  }
                }
              }
              JOINT rIndex1
              {
                OFFSET -7.75947 0.938293 5.60832
                CHANNELS 3 Zrotation Xrotation Yrotation
                JOINT rIndex2
                {
                  OFFSET -2.54057 -0.884171 1.56538
                  CHANNELS 3 Zrotation Xrotation Yrotation
                  End Site
                  {
                    OFFSET -1.62519 -0.234802 1.16502
                  }
                }
              }
              JOINT rMid1
              {
                OFFSET -8.24714 1.18213 3.41376
                CHANNELS 3 Zrotation Xrotation Yrotation
                JOINT rMid2
                {
                  OFFSET -3.10165 -0.590103 1.0647
                  CHANNELS 3 Zrotation Xrotation Yrotation
                  End Site
                  {
                    OFFSET -2.48547 -0.328903 0.83742
                  }
                }
              }
              JOINT rRing1
              {
                OFFSET -8.82822 0.546677 1.51678
                CHANNELS 3 Zrotation Xrotation Yrotation
                JOINT rRing2
                {
                  OFFSET -2.60934 -0.819778 -0.0198488
                  CHANNELS 3 Zrotation Xrotation Yrotation
                  End Site
                  {
                    OFFSET -2.33842 -0.294052 0.168128
                  }
                }
              }
              JOINT rPinky1
              {
                OFFSET -8.27202 -0.0477905 -0.4584
                CHANNELS 3 Zrotation Xrotation Yrotation
                JOINT rPinky2
                {
                  OFFSET -1.82734 -0.647385 -0.700984
                  CHANNELS 3 Zrotation Xrotation Yrotation
                  End Site
                  {
                    OFFSET -1.69225 -0.51767 -0.607171
                  }
                }
              }
            }
          }
        }
      }
      JOINT lCollar
      {
        OFFSET 2.68224 19.2634 -4.8768
        CHANNELS 3 Zrotation Xrotation Yrotation
        JOINT lShldr
        {
          OFFSET 8.77824 -1.95073 1.46304
          CHANNELS 3 Zrotation Xrotation Yrotation
          JOINT lForeArm
          {
            OFFSET 28.1742 -1.7115 0.48768
            CHANNELS 3 Zrotation Xrotation Yrotation
            JOINT lHand
            {
              OFFSET 22.5879 0.773209 7.07136
              CHANNELS 3 Zrotation Xrotation Yrotation
              JOINT lThumb1
              {
                OFFSET 1.2192 -0.487915 3.41376
                CHANNELS 3 Zrotation Xrotation Yrotation
                JOINT lThumb2
                {
                  OFFSET 3.37035 -0.52449 3.41376
                  CHANNELS 3 Zrotation Xrotation Yrotation
                  End Site
                  {
                    OFFSET 1.78271 -1.18214 1.43049
                  }
                }
              }
              JOINT lIndex1
              {
                OFFSET 7.75947 0.938293 5.60832
                CHANNELS 3 Zrotation Xrotation Yrotation
                JOINT lIndex2
                {
                  OFFSET 2.54057 -0.884171 1.56538
                  CHANNELS 3 Zrotation Xrotation Yrotation
                  End Site
                  {
                    OFFSET 1.62519 -0.234802 1.16502
                  }
                }
              }
              JOINT lMid1
              {
                OFFSET 8.24714 1.18213 3.41376
                CHANNELS 3 Zrotation Xrotation Yrotation
                JOINT lMid2
                {
                  OFFSET 3.10165 -0.590103 1.0647
                  CHANNELS 3 Zrotation Xrotation Yrotation
                  End Site
                  {
                    OFFSET 2.48547 -0.328903 0.83742
                  }
                }
              }
              JOINT lRing1
              {
                OFFSET 8.82822 0.546677 1.51678
                CHANNELS 3 Zrotation Xrotation Yrotation
                JOINT lRing2
                {
                  OFFSET 2.60934 -0.819778 -0.0198488
                  CHANNELS 3 Zrotation Xrotation Yrotation
                  End Site
                  {
                    OFFSET 2.33842 -0.294052 0.168128
                  }
                }
              }
              JOINT lPinky1
              {
                OFFSET 8.27202 -0.0477905 -0.4584
                CHANNELS 3 Zrotation Xrotation Yrotation
                JOINT lPinky2
                {
                  OFFSET 1.82734 -0.647385 -0.700984
                  CHANNELS 3 Zrotation Xrotation Yrotation
                  End Site
                  {
                    OFFSET 1.69225 -0.51767 -0.607171
                  }
                }
              }
            }
          }
        }
      }
    }
  }
  JOINT rButtock
  {
    OFFSET -8.77824 4.35084 1.2192
    CHANNELS 3 Zrotation Xrotation Yrotation
    JOINT rThigh
    {
      OFFSET 0 -1.70687 -2.19456
      CHANNELS 3 Zrotation Xrotation Yrotation
      JOINT rShin
      {
        OFFSET 0 -36.8199 0.73152
        CHANNELS 3 Zrotation Xrotation Yrotation
        JOINT rFoot
        {
          OFFSET 0.73152 -45.1104 -5.12064
          CHANNELS 3 Zrotation Xrotation Yrotation
          End Site
          {
            OFFSET -1.1221 -3.69964 12.103
          }
        }
      }
    }
  }
  JOINT lButtock
  {
    OFFSET 8.77824 4.35084 1.2192
    CHANNELS 3 Zrotation Xrotation Yrotation
    JOINT lThigh
    {
      OFFSET 0 -1.70687 -2.19456
      CHANNELS 3 Zrotation Xrotation Yrotation
      JOINT lShin
      {
        OFFSET 0 -36.8199 0.73152
        CHANNELS 3 Zrotation Xrotation Yrotation
        JOINT lFoot
        {
          OFFSET -0.73152 -45.1104 -5.12064
          CHANNELS 3 Zrotation Xrotation Yrotation
          End Site
          {
            OFFSET 1.1221 -3.69964 12.103
          }
        }
      }
    }
  }
}
MOTION
Frames:	6
Frame Time:	0.03333
0.0 0.0 0.0 0.0 0.0 0.0 0.0 0.0 0.0 0.0 0.0 0.0 0.0 0.0 0.0 0.0 0.0 0.0 0.0 0.0 0.0 0.0 0.0 0.0 0.0 0.0 0.0 0.0 0.0 0.0 0.0 0.0 0.0 0.0 0.0 0.0 0.0 0.0 0.0 0.0 0.0 0.0 0.0 0.0 0.0 0.0 0.0 0.0 0.0 0.0 0.0 0.0 0.0 0.0 0.0 0.0 0.0 0.0 0.0 0.0 0.0 0.0 0.0 0.0 0.0 0.0 0.0 0.0 0.0 0.0 0.0 0.0 0.0 0.0 0.0 0.0 0.0 0.0 0.0 0.0 0.0 0.0 0.0 0.0 0.0 0.0 0.0 0.0 0.0 0.0 0.0 0.0 0.0 0.0 0.0 0.0 0.0 0.0 0.0 0.0 0.0 0.0 0.0 0.0 0.0 0.0 0.0 0.0 0.0 0.0 0.0 0.0 0.0 0.0 0.0 0.0 0.0 0.0 0.0 0.0 0.0 0.0 0.0 0.0 0.0 0.0 0.0 0.0 0.0 0.0 0.0 0.0
0.0232 62.8729 0.14100000000000001 0.124995 -19.701345 -1.472104 1.029611 3.089604 -37.628205 10.585387 0.2735 -76.972739 7.748018 -16.267838 71.198468 42.788537 -9.20202 65.461557 109.483792 -14.764616 20.771014 -10.805354 -5.7213 55.700039 -88.29419 -50.197846 159.478172 24.232726 -53.768173 20.250787 -33.922973 -82.108415 111.451719 64.099126 -47.420341 -19.904703 -142.040465 29.515182 34.48824 161.355317 59.384832 -94.440404 141.519534 47.037619 -105.161488 88.68187 -39.265142 -166.71573 -163.096478 8.635396 -126.701154 -179.621418 -22.208146 139.942859 -92.261 12.240348 -84.0459 121.391678 68.011246 -115.790647 -142.105119 20.259263 -84.300448 -26.573685 -66.19581 -15.003763 82.948422 -36.968175 -163.44967 159.272411 18.747579 -164.624677 176.719674 41.276418 20.950504 -35.531333 -40.311433 55.851355 -4.832683 -19.698801 -46.219685 99.421955 -7.256117 -50.903404 -27.077447 -17.470205 -56.034226 169.999796 -10.791533 -72.582889 -120.52543 -35.495027 -138.676663 121.078047 30.7499 12.428568 -90.637006 32.540377 86.751293 -14.14259 19.005242 -6.580288 -29.362773 2.780559 53.245426 146.185104 27.926387 138.313642 -44.721909 -1.118351 -88.105639 -0.948332 43.599473 -178.983011 -6.516035 1.136578 -105.633845 -78.943758 21.400872 96.709982 48.825754 14.927266 98.877652 -1.400485 50.720371 0.959115 5.629607 0.459275 83.510208 70.654026 10.565649 -97.51917
3.8609999999999998 63.1394 3.8629 136.673541 -88.173829 -120.799687 -2.366214 0.248614 -90.811606 5.388016 2.187505 99.0607 -5.66306 11.389752 41.018388 -15.095237 -18.326566 -72.47318 7.683213 -1.907136 -27.842869 -13.017819 3.435629 -29.455184 -2.042759 -20.297931 -20.430094 -104.452001 4.337995 139.050032 -0.990026 42.749419 -84.03399 154.521295 -28.217703 143.141947 -154.345224 23.05649 68.054813 61.172451 -39.499533 50.948386 -159.103267 -14.645931 113.737383 10.470706 42.431571 28.174553 -7.637842 -47.99927 -10.859652 0.591366 16.252064 6.16238 -135.71686 35.977798 177.222235 52.276556 24.271257 -52.157394 -59.285243 -41.105699 -44.581259 -121.510188 51.437155 -148.256405 -5.112515 -19.355522 3.734066 58.256901 -29.365118 166.078746 -11.154113 44.051272 139.740824 -176.24285 -8.877118 -156.833404 176.409741 -8.062191 -99.326752 -172.769728 -18.398539 -110.530987 -149.457599 -79.373054 -79.880251 0.985277 -2.997547 -24.256669 42.151277 70.64971 -32.242831 36.014395 -76.87242 24.230298 135.513902 0.33259 -178.408279 -39.477795 6.134131 -25.786022 -38.640965 57.806905 35.1662 21.664434 20.674647 -28.800717 8.172964 -5.915852 -2.997623 -31.077791 -59.406726 -48.020059 -43.320089 73.213649 149.099561 -113.71085 -43.159233 157.094159 55.671461 17.765599 35.64527 -74.423437 -21.127364 -112.777526 -70.356349 -2.15622 17.897262 96.097289 -62.34663 178.798169
4.9306 60.4283 5.1326 -167.637406 -84.788601 -175.798197 -1.427231 7.379879 -175.679024 2.630261 10.027955 -172.734434 -9.36659 20.167896 -49.724163 38.68109 -21.968434 29.707695 164.448176 9.033339 -60.097234 -40.240233 1.241798 -3.388828 -145.865088 31.272949 166.186761 155.535634 -15.154098 -165.426549 -112.78903 8.436895 85.973869 78.511012 -59.139655 70.545386 -6.715124 0.054578 -17.457263 -137.95704 -1.043574 92.089231 -24.996616 31.216495 22.358202 -176.614232 -25.064227 159.018708 -20.152407 -33.298876 -29.158126 -157.805331 -66.3604 121.256449 119.039845 46.626834 -139.692028 -102.945123 31.368177 18.464974 -136.852594 -44.523439 -109.369955 -117.137886 16.19703 -97.391684 158.82803 35.795305 -155.644077 -82.630982 6.105471 174.829935 -62.09085 -88.653038 82.467967 -167.626976 -29.19888 -137.763548 168.569229 13.652146 -73.678541 26.028804 -52.767007 -5.803299 -29.94748 -28.726312 -19.337455 7.61932 9.213025 46.343796 140.759889 56.135499 -118.180525 -15.249764 16.480081 24.458347 -46.895223 -50.293759 -40.636088 56.357752 56.110831 10.959248 126.858488 -55.367963 145.151684 35.610555 35.776327 -53.002039 -37.641676 12.18304 -83.007067 67.190879 1.539099 95.033285 61.092972 37.145274 -62.151523 -62.114803 13.782972 5.966217 7.40795 0.723368 -1.902072 16.731886 -49.97364 -161.068605 98.59444 -78.836175 85.125105 112.384589 63.910062 167.998642
5.1352 62.9473 6.9133 -156.151289 -81.701661 173.059462 -2.869897 12.335056 24.370617 -2.74904 -18.80451 -26.254501 -6.624147 26.639743 79.871687 -48.21337 -13.011399 -88.038129 171.987533 -0.381104 5.437472 -50.523051 19.562537 -40.138102 14.063177 -18.20619 3.347003 -123.575305 -8.971701 153.076335 179.00509 -22.384329 -118.936422 6.85026 31.718101 -3.580154 -171.901057 -24.154219 112.947419 -93.959654 14.431751 63.635627 -9.450892 -2.305014 -10.00035 159.210383 -35.957663 62.638612 -132.56066 47.739886 124.364162 38.42389 -39.95971 35.92563 -62.09371 -1.623206 0.397668 60.918537 15.346682 29.232079 -39.209237 29.506069 69.049668 43.892406 -1.731196 -59.864853 18.987465 69.571739 -10.768659 -93.562394 18.794896 -132.71013 -147.958513 -79.044091 7.880509 -168.68874 -10.262452 -131.933459 2.2491 -4.429294 -24.825228 8.625248 -43.136153 45.027794 157.166637 10.108675 -117.494781 -35.316781 -66.393586 -15.513757 159.265138 38.700832 -131.431992 164.52241 -55.08333 -149.160386 59.521797 38.810351 -81.404767 -54.688063 7.797338 8.758378 147.297345 9.584004 141.799176 11.43273 -55.645025 26.233582 -59.245013 -21.937353 -84.324784 45.717062 26.149698 31.380004 -2.182936 74.916271 -91.537255 81.331561 46.9138 1.971229 92.472967 37.710413 36.214098 -113.982248 -17.434563 -24.652695 -95.996516 72.491102 -11.658932 76.307883 -13.587068 172.401649
4.4798 63.2056 8.8161 -156.480065 -71.988078 169.850069 4.15605 12.561667 173.219234 -2.841949 16.742987 -172.95599 -0.375858 26.108475 89.209974 -41.722606 -2.723905 -75.167384 -156.327418 9.457316 43.078521 -179.526041 -0.318629 -67.82338 -135.379695 27.30378 147.698627 -40.347241 25.630609 -5.281497 0.039286 11.538399 -100.099419 148.588481 -15.977822 128.557313 -173.57634 -26.16713 91.432114 39.272009 -48.944189 25.112964 36.815322 -77.279088 14.088747 1.268241 -81.082113 -103.932291 2.455829 -8.851364 2.254239 176.779009 79.613125 -179.497094 148.760623 -41.680629 151.148077 2.803275 5.073647 -9.369493 -104.526446 33.99978 126.702746 163.322894 77.293387 -24.849509 7.077716 29.531835 1.799173 -66.378326 3.696833 -100.947836 19.079057 20.061086 -136.503063 -8.211633 -7.32075 5.445833 179.159135 1.240481 -67.120581 91.98298 -25.962727 -7.354924 114.599498 63.772128 -88.303454 -53.906698 -65.497419 -47.299605 3.021543 -11.529171 16.599287 -138.103252 -48.212823 -92.691504 125.193559 -81.778319 123.889701 -165.776485 65.257791 150.417842 -76.743657 73.346645 41.749116 48.967499 -18.443343 59.213522 -8.168399 -16.99824 -1.217333 6.670759 -29.059237 13.841485 68.486807 58.368534 40.195679 170.212384 34.380191 142.835647 -26.279349 18.103733 -18.817261 97.762027 -50.961646 -9.100223 -107.640947 -2.506524 -79.563263 74.655707 40.337174 176.612746
